<?xml version="1.0" encoding="iso-8859-1"?>

<!DOCTYPE svg PUBLIC "-//W3C//DTD SVG 1.1//EN" "http://www.w3.org/Graphics/SVG/1.1/DTD/svg11.dtd">
<!-- Uploaded to: SVG Repo, www.svgrepo.com, Generator: SVG Repo Mixer Tools -->
<svg version="1.1" id="_x35_" xmlns="http://www.w3.org/2000/svg" xmlns:xlink="http://www.w3.org/1999/xlink" 
	 viewBox="0 0 512 512"  xml:space="preserve">
<g>
	<g>
		<g>
			<rect x="64.479" y="333.095" style="fill:#FBFBFC;" width="381.668" height="32.943"/>
		</g>
		<g>
			<g>
				<rect x="238.842" y="242.919" style="fill:#FBFBFC;" width="32.943" height="210.205"/>
			</g>
			<g>
				<rect x="156.484" y="242.919" style="fill:#FBFBFC;" width="32.943" height="210.205"/>
			</g>
			<g>
				<rect x="321.199" y="246.008" style="fill:#FBFBFC;" width="32.943" height="210.205"/>
			</g>
		</g>
		<g>
			<path style="fill:#FFFFFF;" d="M6.506,200.167l3.133,18.156v0.161l1.848,10.521l38.717,226.28l0.241,1.606
				c0,6.587,1.607,12.771,4.418,18.232c4.016,8.033,10.603,14.62,18.716,18.797c0.08,0,0.161,0.08,0.161,0.08
				c6.265,3.212,13.414,4.981,20.965,4.981h321.144c24.499,0,44.34-18.797,44.34-42.091l38.717-226.359l1.847-10.684l3.374-19.682
				H6.506z M400.909,437.212H109.726l-6.024-35.425l-6.105-35.745l-5.703-32.935l-12.129-71.168H430.87l-12.129,71.168
				l-5.703,32.935L400.909,437.212z"/>
		</g>
		<g>
			<path style="fill:#DDDDDE;" d="M504.128,200.167l-3.374,19.682l-1.847,10.684c-6.828,6.103-15.825,9.719-25.624,9.719H38.717
				c-10.683,0-20.242-4.258-27.23-11.247l-1.848-10.521v-0.161l-3.133-18.156H504.128z"/>
		</g>
		<g>
			<g>
				<path style="fill:#42351D;" d="M439.224,161.934c-1.205,3.775-3.374,7.309-6.427,10.28c-9.799,9.48-25.463,9.158-34.942-0.722
					l-31.247-32.613l-17.591-18.234l-75.587-78.8c-9.478-9.88-9.157-25.543,0.723-34.941c9.8-9.478,25.464-9.158,34.862,0.724
					l92.536,96.309l15.985,16.708l15.985,16.628C440.027,144.021,441.875,153.579,439.224,161.934z"/>
			</g>
		</g>
		<g>
			<g>
				<path style="fill:#42351D;" d="M222.986,53.171l-64.743,67.473l-59.682,62.172c-9.479,9.88-25.142,10.202-34.942,0.724
					c-3.053-2.893-5.221-6.507-6.426-10.282c-2.651-8.354-0.804-17.832,5.703-24.661l26.829-27.953h0.08l97.596-101.692
					c1.205-1.284,2.571-2.41,3.936-3.293c1.366-0.965,2.812-1.769,4.338-2.412c5.944-2.408,12.611-2.489,18.555-0.159
					c2.892,1.124,5.623,2.81,8.033,5.14C232.143,27.709,232.464,43.37,222.986,53.171z"/>
			</g>
		</g>
		<path style="fill:#EB7574;" d="M512,120.645v75.827c0,9.48-4.418,17.913-11.246,23.376c-5.141,4.097-11.647,6.585-18.716,6.585
			H30.042c-7.872,0-15.021-3.051-20.403-7.95c-1.526-1.447-2.892-2.973-4.016-4.66c-0.562-0.804-1.125-1.686-1.607-2.491
			c-1.044-1.767-1.928-3.614-2.49-5.542c-0.16-0.482-0.321-1.045-0.402-1.526c-0.241-0.563-0.402-1.126-0.482-1.769
			C0.241,200.569,0,198.561,0,196.472v-75.827H512z"/>
	</g>
	<path style="opacity:0.12;fill:#FFFFFF;" d="M309.015,7.627c-9.398-9.882-25.062-10.202-34.862-0.724
		c-9.88,9.398-10.201,25.061-0.723,34.941l75.587,78.8H158.243l64.743-67.473c9.478-9.801,9.157-25.463-0.723-34.943
		c-2.41-2.33-5.141-4.016-8.033-5.14c-5.944-2.33-12.692-2.33-18.555,0.159c-1.526,0.643-2.972,1.367-4.338,2.412
		c-1.365,0.882-2.731,2.008-3.936,3.293L89.805,120.645H0v75.827c0,2.089,0.241,4.097,0.643,6.025
		c0.08,0.643,0.241,1.206,0.482,1.769c0.08,0.48,0.241,1.043,0.402,1.526c0.643,1.928,1.446,3.775,2.49,5.542
		c0.482,0.804,1.044,1.687,1.607,2.491c1.205,1.606,2.571,3.132,4.016,4.499v0.161l1.848,10.521l38.717,226.28l53.498-53.499
		l-6.105-35.745h41.85l17.029-17.028l15.904-15.906l17.029-17.028v-54.14h49.401v4.74l4.739-4.74l21.688-21.688l13.816-13.818
		l26.266-26.267l79.523-79.522l16.708-16.708L309.015,7.627z M156.476,333.107H91.893l-12.129-71.168h76.711V333.107z"/>
</g>
</svg>